<svg xmlns="http://www.w3.org/2000/svg" viewBox="0 0 136.88 100"><defs><style>.cls-1{fill:#ee4122;}.cls-2,.cls-8{fill:#ce2776;}.cls-2{opacity:0.83;}.cls-3{fill:#2d9ce0;}.cls-4{fill:#5f78c0;opacity:0.88;}.cls-5{fill:#36b1d9;}.cls-6{fill:#a1c0e2;opacity:0.82;}.cls-7{fill:#d8767f;opacity:0.84;}.cls-25,.cls-26,.cls-27,.cls-28,.cls-8{opacity:0.55;}.cls-9{fill:#f8c329;}.cls-10{fill:#f9e533;}.cls-11{fill:#f8eb31;}.cls-12{fill:#6d7cbc;}.cls-13{fill:#f6960f;}.cls-14{fill:#6dc8f3;}.cls-15{fill:#4795d0;}.cls-16{fill:#a9bce1;opacity:0.81;}.cls-17{fill:#e38eb5;}.cls-18{fill:#340a1f;}.cls-19{fill:#f05a1d;}.cls-20{fill:#fde32b;opacity:0.86;}.cls-21{fill:#7db5e4;opacity:0.8;}.cls-22{opacity:0.34;}.cls-23{fill:#f6be50;}.cls-24{fill:#fff;}.cls-25{fill:#0232ab;}.cls-26{fill:#aa02b0;}.cls-27{fill:#ac0603;}.cls-28{fill:#36a300;}.cls-29{fill:#3d3d3d;}.cls-30{fill:#fcd6a2;}.cls-31{fill:#956932;}.cls-32{fill:#dcd8d4;}.cls-33{fill:#21201e;}.cls-34{fill:#322019;}.cls-35{fill:#723e0f;}.cls-36{fill:#fcdd7e;}.cls-37{fill:#797979;}</style></defs><title>logo</title><g id="colours"><path class="cls-1" d="M89.44,36.46c1.45.63,2.76-2,6.12-3.18,1.73-.64,3.23-.6,6.23-.51,3.5.1,4.33.72,6.5.12a6.83,6.83,0,0,0,3.81-2.29A6.06,6.06,0,0,0,113.38,26a6.09,6.09,0,0,0-.89-2.16,8.87,8.87,0,0,0-3.57-3.7,8.12,8.12,0,0,0-5.47-.25,17,17,0,0,0-8.66,5c-3.12,3.29-2.12,4.82-5,7.51-.44.41-1.53,1.4-1.4,2.55A2,2,0,0,0,89.44,36.46Z"/><path class="cls-2" d="M50.74,29.2c-.48-1-3.09-7,.26-10.18,2.52-2.4,7.1-2,9.42,0,.95.81.76,1.24,2.16,3.94,2.66,5.1,4.38,5.58,4.84,8.53.09.56.62,4-1.14,5.48C63.27,39.46,53.91,36,50.74,29.2Z"/><path class="cls-3" d="M44.12,45.88c-3.32,4.74-6.33,6.59-8.53,7.38a18.84,18.84,0,0,0-3.18,1.4c-2.19,1.23-4.15,2.34-4.84,4.46a6.43,6.43,0,0,0,1.79,6.36c3.16,3,8.33,1,8.91.77C43.67,64.09,46.46,57.48,46,52A14.73,14.73,0,0,0,44.12,45.88Z"/><path class="cls-4" d="M51.51,61.54c0,.51-.15,5.3-4.08,8a9.41,9.41,0,0,1-11.84-.89c-3.64-3.74-2.83-10.08.77-13.37a9.24,9.24,0,0,1,10.56-1.4C51.15,56.26,51.49,61.2,51.51,61.54Z"/><path class="cls-5" d="M46.16,34.93a10.69,10.69,0,0,0-11.58-.38,10.13,10.13,0,0,0-4.33,6.75,9.91,9.91,0,0,0,3.69,9.16c2.36,1.85,6.13,3,9.29,1.53a7.86,7.86,0,0,0,3.19-2.93C50,43.56,46.65,36,46.16,34.93Z"/><path class="cls-6" d="M61.06,66.63A7.06,7.06,0,0,1,59.15,74a7,7,0,0,1-8.92,0C46.8,70.73,49,62.69,53.16,61.54,56,60.77,59.93,63.05,61.06,66.63Z"/><path class="cls-7" d="M87.28,36.08c2,1,7.66-3.46,8.28-8.79.1-.88.5-4.4-1.91-6.11a4.94,4.94,0,0,0-5.61,0c-.41.33-.81.8-1.65,5.48-.78,4.32-.85,6.22,0,8.14C86.7,35.51,86.87,35.88,87.28,36.08Z"/><path class="cls-8" d="M44.63,40.41a16.45,16.45,0,0,0-3.82-1.53c-1.83-.48-2.29-.26-3.56-.64-1.78-.53-4.56-2.07-4.71-4-.17-2.23,3.47-4.07,6-5.34a18.61,18.61,0,0,1,9.3-2.29,21,21,0,0,1,7,1.65c2.92,1.05,5.77,2.08,8.4,4.71,1.88,1.89,3.94,3.95,3.44,5.73C65.4,43.19,49,42.65,44.63,40.41Z"/><path class="cls-9" d="M91.35,49.83c1.16.58,19.46,9.71,29.28,10.31a20.32,20.32,0,0,0,6.75-.77c2.39-.71,6.42-1.93,7.26-4.83,1.06-3.69-3.3-9-7.51-9.3-2.7-.21-5.17,1.61-8.53,4.08-2.6,1.91-2.34,2.32-3.82,3-3.07,1.52-6,.63-11.46-.51C100.58,51.29,96.5,50.52,91.35,49.83Z"/><path class="cls-10" d="M94.79,61.54q-.63,5.91-1.27,11.84a4.76,4.76,0,0,0,3.18,3.69c2.75.71,4.93-2.32,5.09-2.55,2.07-3,1.19-7.6-1.4-10.31A9.23,9.23,0,0,0,94.79,61.54Z"/><path class="cls-11" d="M105.1,66c2.1.76,8.44,3.32,9.93,8.66.22.76.84,3-.25,4.07s-4.18.65-6-.76c-2.38-1.86-2.86-5.28-3.43-9.42C105.21,67.49,105.14,66.61,105.1,66Z"/><path class="cls-12" d="M39.54,31.88c-1,.52-5.27-3.47-5.47-8.15,0-.91-.12-2.72,1.14-3.82a3.36,3.36,0,0,1,3.31-.64,3,3,0,0,1,1.53,1.4c.66,1.4-.29,2.67-.76,4.59C38.35,29.06,40.27,31.49,39.54,31.88Z"/><path class="cls-13" d="M109.81,48.17c-.12-.27.87-.56,1.28-1.53.62-1.49-.91-2.75-.26-3.82a2,2,0,0,1,2.29-.63c1.2.51,1.16,2.32,1.15,2.54a4,4,0,0,1-2,3.06C111.21,48.36,110,48.47,109.81,48.17Z"/><path class="cls-14" d="M23.5,47.41a3.24,3.24,0,0,1-3.69-1.79c-.77-2,1.87-4.51,3.82-5.6,2.72-1.51,6.05-1.3,6.24-.63s-2,.85-3.7,3C24.31,44.82,24.93,46.84,23.5,47.41Z"/><path class="cls-15" d="M37.12,34.29a37.05,37.05,0,0,0-9.8-7.51,7.93,7.93,0,0,0-5.86.39,5.53,5.53,0,0,0-2.8,2.8c-.41,1-.78,3,.26,3.94s2.79.49,4.2.13c2.11-.54,2.5-1.31,4.07-1.53a6.05,6.05,0,0,1,4.08.89A5.78,5.78,0,0,1,33.69,37C34,38.74,33,39.36,33.43,41a3.57,3.57,0,0,0,1.78,2.29c1.79.68,4.5-1.21,5-3.31C40.35,39.26,40.36,37.81,37.12,34.29Z"/><path class="cls-16" d="M27.07,37.86c-.52-1.39-5.53-.62-6.24-.51-3,.46-7.56,1.16-9,4.58C11,43.71,11,46.5,12.68,48a4.66,4.66,0,0,0,4.33.89c1.95-.58,2.27-2.19,4.58-5.09C24.82,39.8,27.45,38.9,27.07,37.86Z"/><path class="cls-17" d="M80.79,27.93a2.52,2.52,0,0,1,1.91-1.66c1.94-.39,4.28,1.71,3.94,3.57a2.7,2.7,0,0,1-2.16,2C82.45,32.2,80.29,29.71,80.79,27.93Z"/><path class="cls-18" d="M82.7,67.14A3.5,3.5,0,0,1,82.44,72a3.42,3.42,0,0,1-3.69.38,3.36,3.36,0,0,1-1.91-3.44C77.32,66.79,81.11,65.63,82.7,67.14Z"/><path class="cls-19" d="M92.12,41.42c2.13-3.27,8.88-1.72,10.82-1.27a9.51,9.51,0,0,1,4.45,1.91,8.48,8.48,0,0,1,2.81,8.4,7,7,0,0,1-3.31,4.46c-2.55,1.26-5.31.06-7.52-.89A12.56,12.56,0,0,1,94.79,51C92.72,48.7,90.35,44.14,92.12,41.42Z"/><path class="cls-20" d="M90.21,57.72c.44,6,9.08,8.32,18.2,14.26a9,9,0,0,0,3.44,1.4,8.74,8.74,0,0,0,4-.26c.86-.26,4.77-1.45,5.6-5.09a6.74,6.74,0,0,0-7.64-8c-9.54.7-17.17-10.29-21.51-7.77C90.43,53.3,90.1,56.19,90.21,57.72Z"/><path class="cls-21" d="M33.43,38.62c-.17.32-.67.31-1.69.31-5.86,0-8.79,0-9.77.07-4.47.35-4,2.88-9.42,3.82-2.32.41-6.29,1.09-8.65-1.27a6.83,6.83,0,0,1-1.53-6.49c1.51-5.18,10-7.88,16.68-6.88C27.63,29.48,34.23,37.16,33.43,38.62Z"/></g><g id="shadows"><path class="cls-22" d="M81.27,27.13a72.63,72.63,0,0,1,4.1-9.35c1.47-2.8,1.94-3.23,2.2-3.15.62.18.23,3.49-.29,5.82-.8,3.59-2.76,8.77-4.49,8.59C82.37,29,81.82,28.62,81.27,27.13Z"/><path class="cls-22" d="M75.44,23.31c.17-.53.42-1.29.76-2.19.91-2.38,1.63-4.28,2.11-4.2s.56,3.07.28,5.15c-.18,1.39-.4,3-1.14,3.15S75.57,23.55,75.44,23.31Z"/><path class="cls-22" d="M64.9,72.19,59.57,87.84l7.17-14.75C66.14,72.83,65.48,72.51,64.9,72.19Z"/><path class="cls-22" d="M66.66,73.06c9,4.28,17.91-.47,18.62-.86a21,21,0,0,0,7.25-6.68c2.84-4.28,3.15-8.29,3.53-13.37.43-5.54.74-9.64-2-12.89A10.4,10.4,0,0,0,89,36C77.37,33,55.75,58.59,60.93,68.67,62.06,70.86,64.24,71.91,66.66,73.06Z"/></g><g id="plate"><path class="cls-23" d="M58.25,32.1c-2.06-1.7-4.72-3-7.22-2.78a5.85,5.85,0,0,0-3.48,1.74c-3,2.64-3.24,6.71-3.48,10.43a25.71,25.71,0,0,0,1.74,12.18,26.35,26.35,0,0,0,5.33,7.95,30.76,30.76,0,0,0,9.79,7.24,32.06,32.06,0,0,0,16.5,2.21,20.14,20.14,0,0,0,11.34-6.62A18.66,18.66,0,0,0,93.5,54.24a28.5,28.5,0,0,0-1.7-12.48,32.9,32.9,0,0,0-8.13-12.29A27.47,27.47,0,0,0,74.78,23a24.17,24.17,0,0,0-8.32-1.89,9.16,9.16,0,0,0-4.73.56c-.85.38-2.26,1-2.65,2.27A3.72,3.72,0,0,0,62,28.85c2.6.67,4.58,2.77,4.58,3.92,0,3.15-3.24,3.24-5.06,1.91C60.52,34,60,33.56,58.25,32.1Z"/><path class="cls-24" d="M56.22,44.86c.55.47,1.89,1.64,3.18,1.27,1.72-.49,2.52-3.49,1.91-5.72s-3.1-4.66-5-4.08c-1.56.49-2.12,2.77-2.17,4.08A5.82,5.82,0,0,0,56.22,44.86Z"/></g><g id="paints"><path class="cls-25" d="M82.76,44a4.15,4.15,0,1,0-4.65-4.2A4.34,4.34,0,0,0,82.76,44Z"/><path class="cls-26" d="M85.79,48c1.87,0,4.14,1.19,4.59,3.31s-1.34,4.32-3.28,5c-2.61.87-5.95-.65-6.44-3.06S82.94,48,85.79,48Z"/><path class="cls-27" d="M74.62,58a4.5,4.5,0,0,1,4,7.77c-2.19,2-6.37,1.29-7.52-1.27C70,62.09,71.79,58.58,74.62,58Z"/><path class="cls-28" d="M59.15,57.08a4.92,4.92,0,0,0-.88-6.87,4.67,4.67,0,0,0-5.77.51,4.63,4.63,0,1,0,6.65,6.36Z"/></g><g id="pens"><polygon class="cls-29" points="76.46 13.17 76.13 15.97 75.23 15.62 76.46 13.17"/><polygon class="cls-30" points="76.13 15.97 75.47 21.59 72.76 20.56 75.23 15.62 76.13 15.97"/><path class="cls-31" d="M75.47,21.59l0,.23L63.62,59.41l-2.21-.93c4.86-15.42,11.23-37.67,11.23-37.67l.12-.25Z"/><path class="cls-32" d="M63.62,59.41l-.57,1.81-2.28-.73h0c.21-.66.42-1.33.64-2Z"/><path class="cls-33" d="M63.05,61.22,59.4,72.86l-2.54-1.14c.85-1.94,2.27-6.09,3.91-11.23Z"/><polygon class="cls-34" points="85.11 11.64 84.83 13.85 83.77 13.4 85.11 11.64"/><polygon class="cls-35" points="84.83 13.85 84.48 16.6 82.52 21.38 80.41 20.5 81.93 15.83 83.77 13.4 84.83 13.85"/><polygon class="cls-36" points="82.52 21.38 82.45 21.56 77.06 35.74 74.92 34.81 80.27 20.93 80.41 20.5 82.52 21.38"/><polygon class="cls-37" points="77.06 35.74 64.11 69.82 56.86 84.96 61.69 69.05 74.92 34.81 77.06 35.74"/></g></svg>